<svg width="767" height="748" viewBox="0 0 767 748" fill="none" xmlns="http://www.w3.org/2000/svg">
<path fill-rule="evenodd" clip-rule="evenodd" d="M315.026 667.557C258.903 642.126 261.752 559.516 220.289 513.881C174.378 463.35 79.3249 456.895 63.2548 390.453C47.4478 325.099 111.699 269.471 147.383 212.454C183.761 154.327 207.27 75.8698 272.713 55.771C337.89 35.7538 396.151 63.8141 455.29 97.6667C501.831 124.307 553.404 187.751 586.429 230.053C618.799 271.516 646.36 309.59 660.231 360.384C677.038 421.933 691.12 490.154 659.796 545.774C628.135 601.993 556.378 617.192 495.637 638.648C436.682 659.473 371.933 693.343 315.026 667.557Z" fill="url(#paint0_linear)"/>
<path d="M677.664 386.944C672.743 408.029 638.357 529.481 500.078 516.653C500.078 516.653 498.794 430.679 674.918 384.738C676.451 384.329 677.984 385.557 677.664 386.944Z" fill="#118B8C"/>
<path d="M659.017 400.824C654.507 406.909 649.748 412.78 644.881 418.581C639.997 424.363 634.987 430.021 629.853 435.573C619.586 446.675 608.729 457.262 597.356 467.244C591.634 472.208 585.787 477.012 579.779 481.62C573.736 486.193 567.551 490.57 561.187 494.698C554.787 498.754 548.227 502.58 541.471 506.049C534.679 509.448 527.709 512.49 520.56 515.052C520.168 515.195 519.723 514.981 519.58 514.59C519.437 514.198 519.651 513.754 520.043 513.611H520.061C527.156 511.102 534.091 508.113 540.847 504.786C547.567 501.37 554.11 497.616 560.491 493.594C566.837 489.52 573.023 485.196 579.066 480.659C585.074 476.086 590.939 471.336 596.661 466.407C608.052 456.497 618.926 445.999 629.247 434.968C634.417 429.452 639.444 423.829 644.346 418.082C649.231 412.318 654.008 406.482 658.536 400.432C658.643 400.29 658.839 400.254 658.982 400.361C659.089 400.468 659.124 400.663 659.017 400.824Z" fill="url(#paint1_linear)"/>
<path d="M636.313 308.639C638.942 334.042 647.42 481.943 491.767 503.66C491.767 503.66 457.8 405.716 632.47 306.827C634.002 305.967 636.13 306.984 636.313 308.639Z" fill="#FFC038"/>
<path d="M621.153 329.346C619.903 333.477 618.519 337.541 617.079 341.611C615.642 345.663 614.135 349.699 612.579 353.706C609.462 361.737 606.111 369.659 602.537 377.494C595.39 393.164 587.35 408.428 578.197 423.034C569.03 437.618 558.746 451.561 546.882 464.109C540.952 470.375 534.619 476.289 527.852 481.661C524.463 484.327 520.967 486.895 517.347 489.268C513.728 491.641 509.999 493.842 506.179 495.873C505.822 496.052 505.389 495.917 505.205 495.579C505.026 495.223 505.161 494.79 505.499 494.607C509.294 492.607 512.98 490.434 516.57 488.11C520.163 485.768 523.612 483.245 526.993 480.614C533.727 475.309 540.04 469.483 545.958 463.27C557.793 450.846 568.111 437.003 577.297 422.498C586.487 407.974 594.568 392.774 601.756 377.169C605.343 369.356 608.727 361.459 611.874 353.454C613.448 349.452 614.969 345.437 616.406 341.385C617.842 337.333 619.243 333.273 620.503 329.181C620.557 329.026 620.726 328.934 620.885 328.97C621.115 329.022 621.206 329.191 621.153 329.346Z" fill="url(#paint2_linear)"/>
<path d="M279.657 485.462C279.657 485.462 240.011 365.36 152.348 310.074C151.21 309.35 149.701 310.035 149.505 311.386C146.563 332.482 133.721 466.499 279.657 485.462Z" fill="#118B8C"/>
<path d="M165.347 344.361C168.288 351.093 171.504 357.747 174.954 364.244C178.366 370.761 181.993 377.18 185.778 383.482C189.581 389.783 193.522 395.987 197.699 402.054C201.836 408.121 206.149 414.09 210.718 419.863C215.247 425.656 219.933 431.311 224.894 436.752C225.502 437.437 226.109 438.122 226.737 438.807L228.619 440.803C229.894 442.134 231.129 443.503 232.423 444.795L236.325 448.69L237.305 449.668L238.305 450.607L240.305 452.506C242.932 455.069 245.736 457.457 248.461 459.923C249.854 461.136 251.265 462.291 252.677 463.485L254.795 465.246C255.5 465.833 256.246 466.381 256.971 466.949L261.304 470.354L265.775 473.602L268.01 475.227L270.304 476.773L274.872 479.884H274.892C275.127 480.041 275.186 480.374 275.029 480.608C274.872 480.843 274.578 480.902 274.343 480.765C261.52 473.328 249.422 464.522 238.462 454.482L236.403 452.604L235.364 451.664L234.364 450.705L230.364 446.83C229.031 445.539 227.776 444.169 226.462 442.838L224.521 440.842C223.874 440.177 223.266 439.472 222.639 438.787C217.561 433.347 212.835 427.632 208.208 421.8C199.052 410.097 190.797 397.709 183.425 384.852C179.739 378.413 176.288 371.857 173.072 365.164C171.464 361.818 169.955 358.452 168.484 355.046C167.014 351.641 165.621 348.217 164.367 344.713C164.269 344.439 164.406 344.146 164.68 344.048C164.935 343.989 165.229 344.107 165.347 344.361Z" fill="url(#paint3_linear)"/>
<path d="M276.429 535.436C276.429 535.436 195.608 421.811 118.082 426.215C116.709 426.293 115.768 427.643 116.16 428.954C120.729 444.297 150.414 524.104 276.429 535.436Z" fill="#FFC038"/>
<path d="M136.924 442.81C142.042 447.233 147.316 451.48 152.63 455.668C155.296 457.742 157.963 459.836 160.649 461.891C163.355 463.926 166.041 465.981 168.786 467.977C171.531 469.974 174.256 471.97 177.001 473.946L185.315 479.778C190.922 483.575 196.51 487.391 202.216 491.031C207.863 494.769 213.667 498.252 219.412 501.834L228.176 506.961C229.647 507.803 231.097 508.683 232.568 509.525L237.019 511.971C239.979 513.595 242.94 515.259 245.92 516.844L254.959 521.482C256.469 522.245 257.959 523.048 259.469 523.811L264.057 526.003L273.233 530.367H273.253C273.508 530.484 273.606 530.778 273.488 531.032C273.37 531.287 273.076 531.385 272.841 531.267C260.508 525.611 248.234 519.76 236.411 513.087L231.941 510.64C230.47 509.818 228.999 508.938 227.529 508.096L218.725 502.988C212.961 499.427 207.118 495.943 201.451 492.225C190.04 484.866 178.903 477.117 168.021 469.015C165.296 466.999 162.61 464.924 159.904 462.889C157.218 460.815 154.551 458.721 151.885 456.627C146.591 452.38 141.375 448.055 136.277 443.554C136.081 443.378 136.062 443.065 136.238 442.849C136.395 442.654 136.709 442.634 136.924 442.81Z" fill="url(#paint4_linear)"/>
<path d="M546.526 383.227C542.841 465.84 466.174 529.621 375.312 525.713C284.449 521.806 213.767 451.667 217.477 369.053C221.186 286.44 297.828 222.659 388.691 226.567C479.554 230.474 550.211 300.613 546.526 383.227Z" fill="#B9E4E9"/>
<g opacity="0.68">
<path opacity="0.68" d="M424.678 374.977C424.629 401.836 422.798 428.744 418.05 455.233C416.838 461.849 415.453 468.44 413.795 474.957C412.138 481.475 410.209 487.942 407.86 494.262C405.485 500.557 402.74 506.778 399.005 512.456C397.125 515.27 394.998 517.961 392.352 520.183C391.041 521.294 389.582 522.257 387.999 522.973C386.416 523.689 384.684 524.133 382.928 524.158C381.172 524.207 379.416 523.861 377.784 523.22C376.152 522.578 374.692 521.64 373.332 520.578C370.636 518.43 368.459 515.764 366.53 512.95C362.721 507.321 359.951 501.125 357.552 494.83C355.178 488.535 353.224 482.067 351.542 475.55C349.86 469.032 348.45 462.466 347.238 455.85C344.815 442.618 343.182 429.262 342.069 415.882C340.956 402.478 340.412 389.048 340.338 375.619C340.313 368.904 340.486 362.189 340.734 355.474C340.981 348.76 341.352 342.045 341.847 335.355C342.836 321.95 344.32 308.594 346.546 295.338C347.659 288.722 348.945 282.106 350.503 275.564C352.061 269.022 353.867 262.529 356.118 256.185C357.255 253.025 358.492 249.89 359.902 246.804C361.312 243.743 362.894 240.756 364.725 237.917C366.58 235.103 368.707 232.412 371.378 230.264C372.714 229.202 374.173 228.264 375.781 227.647C377.388 227.005 379.119 226.684 380.826 226.759C382.557 226.808 384.239 227.228 385.822 227.919C387.38 228.61 388.84 229.548 390.151 230.61C392.797 232.757 394.998 235.374 396.927 238.139C400.786 243.694 403.704 249.816 406.227 256.061C408.725 262.307 410.803 268.726 412.608 275.194C414.414 281.686 415.923 288.228 417.233 294.819C422.502 321.185 424.604 348.093 424.678 374.977ZM422.699 374.977C422.724 361.597 422.205 348.216 421.092 334.861C420.004 321.53 418.322 308.224 415.848 295.066C414.612 288.5 413.177 281.958 411.446 275.49C409.715 269.022 407.736 262.628 405.312 256.407C402.863 250.186 400.044 244.088 396.309 238.583C394.429 235.843 392.302 233.251 389.755 231.128C388.469 230.067 387.084 229.153 385.6 228.462C384.091 227.795 382.483 227.351 380.851 227.302C379.218 227.252 377.586 227.573 376.053 228.19C374.519 228.808 373.134 229.721 371.873 230.758C369.325 232.881 367.272 235.522 365.467 238.312C363.686 241.126 362.152 244.088 360.792 247.15C359.432 250.186 358.245 253.321 357.156 256.481C355.005 262.801 353.273 269.269 351.789 275.786C350.305 282.303 349.093 288.895 348.055 295.511C346.002 308.743 344.666 322.073 343.825 335.429C342.96 348.784 342.687 362.189 342.712 375.569C342.687 388.949 343.133 402.329 344.122 415.685C345.136 429.04 346.67 442.346 348.97 455.529C350.132 462.12 351.468 468.662 353.075 475.155C354.683 481.647 356.563 488.066 358.888 494.336C361.213 500.582 363.933 506.729 367.594 512.259C369.449 514.999 371.551 517.616 374.099 519.665C375.36 520.677 376.745 521.565 378.254 522.183C379.738 522.8 381.346 523.121 382.953 523.071C384.561 523.022 386.144 522.602 387.603 521.936C389.062 521.269 390.423 520.331 391.684 519.27C394.182 517.147 396.235 514.505 398.04 511.74C401.651 506.161 404.323 500.014 406.623 493.744C408.898 487.473 410.753 481.03 412.361 474.562C413.969 468.07 415.279 461.503 416.442 454.912C418.717 441.729 420.251 428.423 421.265 415.068C422.229 401.737 422.699 388.357 422.699 374.977Z" fill="white"/>
<path opacity="0.68" d="M492.571 374.976C492.472 392.281 490.246 409.587 485.621 426.25C480.897 442.889 473.774 458.91 464.128 473.278C459.305 480.462 453.814 487.226 447.705 493.348C441.596 499.47 434.844 504.975 427.498 509.592C420.152 514.184 412.213 517.862 403.927 520.355C395.617 522.848 386.96 524.157 378.303 524.157C369.622 524.157 360.965 522.848 352.655 520.355C344.345 517.862 336.405 514.208 329.06 509.616C321.714 505 314.937 499.52 308.828 493.397C302.694 487.275 297.228 480.511 292.38 473.327C282.71 458.96 275.562 442.938 270.838 426.275C268.513 417.931 266.757 409.438 265.619 400.848C264.481 392.257 263.912 383.616 263.863 374.951C263.912 366.286 264.481 357.646 265.644 349.055C266.806 340.464 268.537 331.972 270.887 323.628C275.636 306.989 282.784 290.968 292.479 276.625C297.327 269.441 302.818 262.701 308.927 256.579C315.061 250.457 321.813 244.977 329.159 240.385C336.504 235.818 344.444 232.164 352.729 229.671C361.015 227.178 369.672 225.869 378.328 225.869C386.985 225.894 395.641 227.202 403.927 229.696C412.213 232.189 420.152 235.843 427.498 240.41C434.844 245.001 441.596 250.506 447.705 256.629C453.814 262.751 459.305 269.49 464.128 276.674C473.798 291.042 480.922 307.039 485.646 323.677C490.221 340.365 492.472 357.671 492.571 374.976ZM490.295 374.976C490.271 357.868 488.144 340.76 483.617 324.245C479.067 307.754 472.215 291.856 462.792 277.538C458.093 270.379 452.726 263.664 446.74 257.517C440.755 251.395 434.126 245.865 426.879 241.274C419.633 236.707 411.817 233.028 403.605 230.535C395.394 228.042 386.836 226.733 378.254 226.708C369.672 226.733 361.114 228.066 352.902 230.56C344.691 233.053 336.875 236.731 329.628 241.323C322.406 245.915 315.778 251.469 309.817 257.591C303.832 263.714 298.489 270.453 293.79 277.612C284.391 291.93 277.565 307.829 273.039 324.294C270.788 332.54 269.156 340.958 268.043 349.425C266.93 357.893 266.386 366.434 266.361 374.976C266.386 383.518 266.93 392.059 268.043 400.527C269.156 408.994 270.788 417.412 273.039 425.657C277.565 442.123 284.416 458.022 293.815 472.315C298.514 479.45 303.856 486.189 309.842 492.311C315.827 498.409 322.431 503.939 329.653 508.53C336.9 513.097 344.716 516.751 352.902 519.244C361.089 521.738 369.622 523.071 378.204 523.12C386.762 523.095 395.32 521.762 403.507 519.269C411.693 516.776 419.534 513.122 426.781 508.555C434.027 503.963 440.631 498.433 446.617 492.336C452.602 486.214 457.944 479.499 462.668 472.34C472.092 458.046 478.943 442.148 483.519 425.657C488.119 409.192 490.246 392.059 490.295 374.976Z" fill="white"/>
<path opacity="0.68" d="M230.525 316.036L268.284 315.86L306.044 315.764L381.563 315.684L457.082 315.78L494.841 315.892L532.601 316.084C532.655 316.084 532.71 316.117 532.71 316.149C532.71 316.181 532.655 316.213 532.601 316.213L494.841 316.405L457.082 316.517L381.563 316.614L306.044 316.533L268.284 316.421L230.525 316.245C230.443 316.245 230.361 316.197 230.361 316.149C230.361 316.084 230.443 316.036 230.525 316.036Z" fill="white"/>
<path opacity="0.68" d="M275.178 258.725C284.072 258.565 292.993 258.501 301.887 258.372L328.596 258.18C337.49 258.084 346.411 258.116 355.305 258.084L382.014 258.02L435.459 258.212L462.168 258.436C471.062 258.565 479.983 258.661 488.877 258.821C488.931 258.821 488.985 258.885 488.985 258.95C488.985 259.014 488.931 259.078 488.877 259.078C479.983 259.27 471.062 259.334 462.168 259.463L435.459 259.687L382.014 259.88L355.305 259.816C346.411 259.783 337.49 259.783 328.596 259.719L301.887 259.527C292.993 259.399 284.072 259.334 275.178 259.174C275.097 259.174 275.016 259.078 275.016 258.982C275.016 258.789 275.097 258.725 275.178 258.725Z" fill="white"/>
<path opacity="0.68" d="M217.501 373.126L258.626 372.773L299.751 372.58L382.028 372.42L464.305 372.612L505.43 372.837L546.555 373.222C546.61 373.222 546.664 373.286 546.664 373.35C546.664 373.414 546.61 373.478 546.555 373.478L505.43 373.863L464.305 374.088L382.028 374.28L299.751 374.12L258.626 373.927L217.501 373.575C217.419 373.575 217.337 373.478 217.337 373.382C217.337 373.222 217.419 373.126 217.501 373.126Z" fill="white"/>
<path opacity="0.68" d="M230.525 430.79L268.284 430.437L306.044 430.244L381.563 430.084L457.082 430.276L494.841 430.501L532.601 430.886C532.655 430.886 532.71 430.95 532.71 431.014C532.71 431.078 532.655 431.142 532.601 431.142L494.841 431.527L457.082 431.752L381.563 431.944L306.044 431.784L268.284 431.591L230.525 431.239C230.443 431.239 230.361 431.142 230.361 431.046C230.361 430.886 230.443 430.79 230.525 430.79Z" fill="white"/>
<path opacity="0.68" d="M494.567 488.215C494.567 488.481 494.296 488.68 493.998 488.68H280.236C279.911 488.68 279.667 488.459 279.667 488.215C279.667 487.971 279.938 487.75 280.236 487.75H493.998C494.296 487.75 494.567 487.949 494.567 488.215Z" fill="white"/>
</g>
<path d="M146.179 460.85L182.718 552.592C184.565 557.271 189.395 560.051 194.395 559.342L290.26 552.28L255.739 454.696C254.829 452.286 252.471 450.697 249.886 450.783C233.094 451.18 171.864 452.683 149.986 454.611C146.946 454.895 145.042 458.014 146.179 460.85Z" fill="#016864"/>
<path d="M191.185 555.173L154.646 462.58C153.907 460.709 155.271 458.695 157.26 458.638L247.527 455.207C249.857 455.122 251.988 456.511 252.84 458.667L285.913 548.934L191.185 555.173Z" fill="white"/>
<path d="M322.849 556.363C322.849 558.065 321.457 559.454 319.752 559.454H193.685C191.071 559.454 188.968 557.356 188.968 554.747L186.979 552.45L317.877 551.344C320.633 551.372 322.849 553.613 322.849 556.363Z" fill="#016864"/>
<path d="M173.882 494.825C173.654 494.825 173.427 494.683 173.342 494.456L172.802 493.01C169.194 483.652 165.102 473.045 163.17 468.139C162.715 466.948 162.858 465.615 163.568 464.537C164.278 463.488 165.5 462.836 166.778 462.836H182.661C182.974 462.836 183.23 463.091 183.23 463.403C183.23 463.715 182.974 463.97 182.661 463.97H166.778C165.869 463.97 165.045 464.396 164.534 465.161C164.022 465.899 163.909 466.835 164.25 467.685C166.182 472.591 170.273 483.198 173.882 492.585L174.422 494.031C174.535 494.343 174.393 494.655 174.081 494.768C174.024 494.797 173.939 494.825 173.882 494.825Z" fill="url(#paint5_linear)"/>
<path d="M339.698 415.363C339.954 416.185 336.971 417.404 335.237 414.086C335.181 412.498 334.215 405.664 335.152 404.359C340.238 397.44 350.097 388.762 350.097 388.762C351.774 390.407 350.381 392.023 350.381 392.023L345.608 396.986C346.602 398.801 347.824 400.304 348.392 402.488C348.819 404.132 348.563 405.919 347.711 407.422C346.858 408.925 345.722 410.882 344.642 412.442C342.625 415.334 339.698 415.363 339.698 415.363Z" fill="url(#paint6_linear)"/>
<path d="M343.534 400.219L339.187 403.905L337.823 407.564L341.715 411.874C341.715 411.874 343.022 404.586 343.988 402.998C344.926 401.438 344.415 400.672 343.534 400.219Z" fill="url(#paint7_linear)"/>
<path d="M266.592 451.294C241.646 450.868 214.114 457.845 214.114 457.845C206.669 501.149 212.522 552.224 212.522 552.224C235.31 552.678 253.352 551.316 253.352 551.316C256.562 533.223 272.104 478.972 272.104 478.972C284.293 477.469 294.351 473.953 302.619 469.302C296.312 462.013 293.328 452.712 292.05 447.238C283.213 449.961 274.292 451.435 266.592 451.294Z" fill="#024F4F"/>
<path d="M340.295 414.625C337.851 411.676 334.754 413.065 334.754 413.065C331.089 428.549 311.825 441.113 292.05 447.238C293.328 452.74 296.312 462.013 302.619 469.302C335.436 450.896 340.295 414.625 340.295 414.625Z" fill="url(#paint8_linear)"/>
<path d="M223.689 481.949L214.114 457.844C214.114 457.844 190.815 473.64 186.979 493.69C191.383 494.002 199.396 495.164 207.238 499.106C208.943 489.634 223.689 481.949 223.689 481.949Z" fill="#024F4F"/>
<path d="M241.305 431.074L233.377 453.988C233.235 454.357 233.406 454.783 233.747 454.981C235.906 456.172 243.72 459.632 253.096 453.677C254.062 453.053 254.744 452.06 254.886 450.897L257.443 431.074H241.305Z" fill="url(#paint9_linear)"/>
<path d="M258.579 409.861C258.579 409.861 267.302 426.253 266.194 432.861C265.086 439.468 254.261 439.015 244.828 433.626L238.236 415.93L258.579 409.861Z" fill="url(#paint10_linear)"/>
<path d="M245.254 424.948C245.623 424.778 245.765 424.324 245.538 423.956C244.828 422.878 243.521 420.723 243.123 418.823C243.123 418.823 241.56 417.83 247.101 416.497C252.67 415.164 260.938 413.122 262.671 408.387C264.376 403.792 259.915 392.222 252.783 401.439C252.499 401.779 251.988 401.807 251.704 401.439C250.539 399.935 247.47 396.788 243.208 398.688C239.23 400.474 238.776 403.395 238.833 404.87C238.861 405.295 238.463 405.636 238.037 405.551C236.02 405.154 231.19 404.842 228.917 409.776C227.07 413.86 228.263 416.157 229.371 417.291C229.741 417.66 229.57 418.255 229.087 418.397C227.752 418.794 226.047 419.929 226.217 423.02C226.445 427.302 231.246 426.933 232.61 426.735C232.838 426.707 233.065 426.792 233.207 426.933C234.372 428.238 239.657 433.711 245.368 434.392C245.851 434.449 246.248 433.966 246.078 433.484L243.606 426.309C243.492 425.969 243.663 425.601 243.975 425.459L245.254 424.948Z" fill="#222222"/>
<path d="M246.249 425.969C246.249 425.969 240.055 421.715 239.6 425.288C239.145 428.862 245.197 430.478 248.181 429.145L246.249 425.969Z" fill="url(#paint11_linear)"/>
<path d="M207.238 499.107C207.238 499.107 199.083 535.776 206.471 556.421C197.435 560.618 199.083 559.824 199.083 559.824C199.083 559.824 181.183 507.644 186.951 493.719C198.345 492.471 203.999 495.534 207.238 499.107Z" fill="url(#paint12_linear)"/>
<path d="M206.471 556.42C206.471 556.42 211.13 562.432 210.761 564.843C210.392 567.253 210.306 568.218 210.306 568.218C210.306 568.218 207.977 566.63 208.119 564.588C208.431 571.082 210.619 578.455 208.63 578.087C206.641 577.718 196.413 568.303 198.742 558.264C203.97 554.605 205.448 555.002 206.471 556.42Z" fill="url(#paint13_linear)"/>
<path d="M434.159 432.465C434.642 431.529 436.063 431.671 436.347 432.692C437.398 436.492 439.955 443.099 445.325 445.453C445.61 445.567 445.865 445.68 446.093 445.822C446.348 445.085 446.348 444.262 445.752 443.355C444.075 440.802 447.087 437.343 447.087 437.343C447.087 437.343 447.286 440.405 449.616 442.334C451.633 443.979 452.599 447.694 451.207 450.7C448.309 461.958 443.962 476.819 460.896 487.708C477.83 498.57 501.668 467.205 501.668 467.205L489.848 504.639C489.848 504.639 471.579 518.081 450.355 499.166C429.102 480.25 443.195 452.713 443.195 452.713C443.195 452.713 426.942 446.219 434.159 432.465Z" fill="#FAB08A"/>
<path d="M460.753 487.538C455.781 484.334 452.627 480.789 450.724 477.102C446.916 478.605 442.825 478.69 438.677 478.52C439.756 485.468 442.939 492.785 450.07 499.137C471.55 518.28 489.99 504.667 489.99 504.667L501.952 466.779C501.952 466.779 477.858 498.542 460.753 487.538Z" fill="#FFC038"/>
<path d="M601.795 470.467L567.472 556.65C565.739 561.046 561.193 563.655 556.505 562.974L466.493 556.338L498.912 464.71C499.765 462.441 501.981 460.966 504.396 461.023C520.193 461.392 577.672 462.81 598.243 464.625C601.084 464.88 602.874 467.829 601.795 470.467Z" fill="#016864"/>
<path d="M559.545 559.06L593.839 472.111C594.521 470.353 593.271 468.453 591.367 468.396L506.584 465.191C504.396 465.106 502.407 466.411 501.611 468.453L470.556 553.218L559.545 559.06Z" fill="white"/>
<path d="M435.864 560.167C435.864 561.783 437.171 563.088 438.791 563.088H557.187C559.63 563.088 561.619 561.103 561.619 558.664L563.494 556.508L440.552 555.459C437.938 555.487 435.864 557.586 435.864 560.167Z" fill="#016864"/>
<path d="M575.769 502.371C575.996 502.371 576.195 502.229 576.28 502.031L576.792 500.698C580.173 491.907 584.037 481.953 585.827 477.33C586.253 476.224 586.111 474.948 585.457 473.955C584.776 472.963 583.667 472.367 582.446 472.367H567.557C567.245 472.367 567.018 472.622 567.018 472.906C567.018 473.19 567.273 473.445 567.557 473.445H582.474C583.326 473.445 584.094 473.842 584.577 474.551C585.06 475.26 585.145 476.111 584.832 476.905C583.014 481.527 579.178 491.481 575.797 500.273L575.286 501.606C575.172 501.889 575.314 502.201 575.598 502.315C575.655 502.371 575.712 502.371 575.769 502.371Z" fill="url(#paint14_linear)"/>
<path d="M504.623 412.189C504.623 412.189 499.707 390.239 524.91 396.052C524.91 396.052 537.155 394.067 537.752 405.581C537.752 405.581 545.651 410.771 539.855 420.753C539.855 420.753 563.295 411.707 573.495 432.21C583.695 452.714 574.319 464.001 564.488 466.922C564.488 466.922 572.472 470.921 568.694 479.939C564.915 488.957 545.821 495.309 534.513 484.334C534.513 484.334 502.407 488.56 503.032 465.929C503.032 465.929 488.087 456.287 503.77 437.598C519.511 418.881 504.623 412.189 504.623 412.189Z" fill="#222222"/>
<path d="M503.231 463.093C508.288 461.59 523.034 458.783 537.07 471.686C539.457 473.87 540.423 477.216 539.571 480.336C535.792 494.175 526.984 538.585 535.706 556.281C535.706 556.281 524.341 556.593 502.464 556.055C502.464 556.055 494.934 523.356 485.103 509.007C478.313 499.109 495.929 471.799 500.418 465.192C501.071 464.171 502.094 463.433 503.231 463.093Z" fill="#FFC038"/>
<path d="M517.21 435.584C517.21 435.584 524.711 456.74 525.251 466.042C525.251 466.042 516.983 469.785 509.169 463.461C509.169 463.461 508.345 442.333 507.18 438.562L517.21 435.584Z" fill="#FAB08A"/>
<path d="M506.811 406.772C506.811 406.772 487.234 434.139 498.94 442.079C510.647 450.02 524.597 430.594 524.597 430.594C524.597 430.594 529.143 415.62 524.398 410.544C519.625 405.439 506.811 406.772 506.811 406.772Z" fill="#FAB08A"/>
<path d="M515.874 400.22C515.874 400.22 506.867 402.347 505.617 406.403C504.367 410.458 518.375 414.23 522.296 414.428L525.449 430.82C525.449 430.82 534.797 415.393 531.104 406.488C527.41 397.583 515.874 400.22 515.874 400.22Z" fill="#222222"/>
<path d="M520.79 428.552C520.79 428.552 528.404 419.733 531.444 425.49C534.485 431.247 524.568 435.557 521.159 432.721L520.79 428.552Z" fill="#FAB08A"/>
<path d="M539.088 474.464C539.088 474.464 563.011 494.316 568.95 521.427C574.888 548.539 534.002 551.431 534.002 551.431C534.002 551.431 528.461 545.249 521.87 547.461C515.278 549.673 521.358 536.656 529.058 536.685C536.758 536.713 533.206 542.81 544.117 537.876C554.743 533.083 561.307 518.223 534.201 495.677C532.638 494.373 531.388 492.699 530.621 490.799C525.308 477.556 529.484 468.878 539.088 474.464Z" fill="#FAB08A"/>
<path d="M568.921 521.315C562.954 494.204 538.917 474.353 538.917 474.353C529.285 468.794 525.109 477.472 530.393 490.688C531.161 492.588 532.411 494.261 534.002 495.565C554.999 512.95 555.88 525.74 550.282 532.914C553.095 533.794 555.794 535.24 558.238 536.8C560.142 538.047 561.875 539.012 563.466 540.231C568.097 535.864 570.796 529.767 568.921 521.315Z" fill="#FFC038"/>
<path d="M407.394 409.2C409.987 409.652 412.58 407.995 413.038 405.434C413.496 402.872 411.818 400.311 409.225 399.859L395.192 397.147C402.056 392.025 408.92 386.902 415.936 381.779C418.071 380.273 418.529 377.259 416.851 375.15C415.936 373.945 414.563 373.342 413.19 373.191H411.513C401.293 380.725 391.073 388.409 380.701 395.942C379.786 396.695 379.023 397.75 378.718 398.955C378.261 401.516 379.938 404.078 382.532 404.53L407.394 409.2ZM404.039 372.739L377.193 371.534C390.616 364.151 404.039 356.618 417.461 349.235C419.749 347.879 420.665 345.017 419.292 342.757C418.377 341.25 417.004 340.346 415.173 340.346C414.716 340.346 414.258 340.346 413.801 340.346L358.126 371.233C356.601 371.986 355.686 373.493 355.533 375.301C355.381 377.862 357.516 380.122 360.109 380.273C370.787 380.725 381.311 381.327 391.989 381.779L404.039 372.739ZM405.106 339.743L368.346 337.935L428.291 324.375C430.884 323.773 432.562 321.211 431.952 318.65C431.342 316.089 428.749 314.431 426.156 315.034L332.196 336.278C330.213 336.73 328.535 338.538 328.383 340.647C328.23 343.209 330.366 345.469 332.959 345.619L389.395 348.482L405.106 339.743Z" fill="#222222"/>
<path d="M491.574 287.479C491.597 286.95 491.115 286.43 490.267 285.965C491.312 285.549 491.937 285.038 491.952 284.465C492.027 282.721 486.694 281.078 480.026 280.79C473.373 280.504 467.903 281.674 467.83 283.404C467.807 283.933 468.288 284.453 469.136 284.918C468.091 285.333 467.466 285.844 467.452 286.417C467.429 286.946 467.91 287.466 468.758 287.932C467.713 288.347 467.088 288.858 467.074 289.431C467.051 289.96 467.532 290.48 468.38 290.945C467.335 291.36 466.71 291.872 466.696 292.445C466.656 293.216 467.685 293.962 469.418 294.595C469.319 295.158 469.257 295.768 469.228 296.454C469.085 299.655 472.342 302.592 477.073 303.183C481.804 303.774 486.309 300.889 486.751 297.711C486.863 296.934 486.907 296.236 486.913 295.619C489.273 295.152 490.762 294.404 490.805 293.49C490.828 292.961 490.347 292.441 489.499 291.976C490.544 291.56 491.169 291.049 491.183 290.476C491.206 289.948 490.725 289.428 489.877 288.962C490.934 288.563 491.559 288.052 491.574 287.479Z" fill="#222222"/>
<path d="M475.024 296.016C473.069 295.771 471.288 295.405 469.85 294.938C469.767 294.913 469.721 294.821 469.746 294.738C469.77 294.654 469.863 294.608 469.946 294.633C472.214 295.363 475.289 295.848 478.624 295.991C481.356 296.117 483.932 295.993 486.091 295.645C486.179 295.627 486.257 295.694 486.275 295.783C486.293 295.871 486.225 295.949 486.137 295.967C483.964 296.314 481.359 296.434 478.611 296.321C477.382 296.253 476.171 296.159 475.024 296.016Z" fill="url(#paint15_linear)"/>
<path d="M475.447 292.98C472.897 292.661 470.661 292.137 469.117 291.484C469.036 291.445 469.004 291.355 469.029 291.271C469.068 291.19 469.158 291.158 469.242 291.183C471.44 292.119 475.098 292.778 479.019 292.952C482.896 293.12 486.564 292.788 488.855 292.067C488.946 292.036 489.025 292.089 489.059 292.165C489.091 292.255 489.038 292.335 488.962 292.368C486.64 293.099 482.928 293.44 479.022 293.268C477.776 293.228 476.58 293.121 475.447 292.98Z" fill="url(#paint16_linear)"/>
<path d="M475.782 289.961C473.034 289.617 470.662 289.033 469.115 288.293C469.033 288.254 469.001 288.164 469.04 288.082C469.079 288.001 469.17 287.969 469.251 288.008C471.411 289.026 475.189 289.757 479.382 289.936C483.26 290.104 486.927 289.772 489.219 289.052C489.309 289.02 489.389 289.073 489.423 289.149C489.454 289.239 489.401 289.319 489.325 289.353C487.003 290.083 483.292 290.425 479.386 290.253C478.141 290.198 476.93 290.104 475.782 289.961Z" fill="url(#paint17_linear)"/>
<path d="M476.19 286.937C474.009 286.664 472.047 286.246 470.548 285.699C470.464 285.675 470.418 285.583 470.457 285.501C470.482 285.418 470.574 285.372 470.656 285.411C472.915 286.211 476.226 286.769 479.76 286.923C483.595 287.086 487.261 286.768 489.537 286.06C489.627 286.028 489.707 286.081 489.738 286.171C489.77 286.262 489.717 286.341 489.627 286.373C487.307 287.09 483.609 287.433 479.733 287.25C478.535 287.172 477.324 287.079 476.19 286.937Z" fill="url(#paint18_linear)"/>
<path d="M465.187 268.667C464.734 265.737 463.707 262.921 462.169 260.387C458.865 254.959 453.723 244.113 454.652 230.291C456.008 210.199 474.979 202.426 490.97 205.805C506.96 209.183 521.401 223.189 517.33 241.532C514.821 252.815 507.333 260.673 501.949 265.058C498.522 267.834 495.883 271.441 494.194 275.498C492.118 280.469 487.911 286.481 479.775 285.852C469.245 285.053 466.118 274.776 465.187 268.667Z" fill="#FFC038"/>
<path d="M482.941 282.206L493.199 246.174C493.409 245.424 493.855 244.963 494.177 245.147C494.501 245.316 494.594 246.061 494.385 246.811C494.383 246.825 494.366 246.851 494.362 246.88L483.353 282.474C483.277 282.737 483.113 282.903 482.994 282.817C482.904 282.733 482.865 282.47 482.941 282.206Z" fill="#EBBC3E"/>
<path d="M477.036 281.769L475.995 244.323C475.978 243.545 475.659 242.988 475.302 243.087C474.946 243.172 474.672 243.87 474.689 244.648C474.687 244.662 474.698 244.693 474.694 244.721L476.571 281.926C476.58 282.2 476.698 282.402 476.834 282.347C476.942 282.288 477.045 282.043 477.036 281.769Z" fill="#EBBC3E"/>
<path d="M493.564 243.03C493.451 242.786 493.122 242.659 492.853 242.74L489.523 243.818L488.823 240.569C488.786 240.407 488.664 240.233 488.489 240.139C488.14 239.938 487.697 240.026 487.488 240.316L487.486 240.33L484.303 244.718L482.738 237.696L482.74 237.682C482.705 237.505 482.595 237.348 482.423 237.226C482.055 236.95 481.503 236.995 481.203 237.317L476.952 241.844C476.786 242.025 476.793 242.313 477.002 242.483C477.223 242.669 477.567 242.683 477.777 242.494L481.41 239.341L483.485 246.081C483.515 246.186 483.587 246.295 483.71 246.354C483.963 246.515 484.313 246.472 484.485 246.25L487.819 242.154L488.585 244.535L488.597 244.551C488.609 244.566 488.608 244.581 488.62 244.597C488.733 244.841 489.063 244.968 489.332 244.887L493.29 243.614C493.543 243.545 493.677 243.274 493.564 243.03Z" fill="white"/>
<path d="M502.675 260.335C502.519 260.315 502.383 260.255 502.268 260.14C501.986 259.861 501.97 259.413 502.252 259.118C503.378 257.937 504.423 256.717 505.371 255.47C505.612 255.155 506.067 255.083 506.382 255.323C506.697 255.564 506.77 256.018 506.529 256.333C505.547 257.619 504.467 258.892 503.293 260.11C503.126 260.291 502.887 260.361 502.675 260.335Z" fill="white"/>
<path d="M508.321 252.938C508.222 252.926 508.125 252.899 508.045 252.846C507.697 252.645 507.594 252.201 507.796 251.852C515.496 238.849 511.788 226.675 511.746 226.555C511.62 226.18 511.831 225.761 512.219 225.651C512.608 225.527 513.012 225.75 513.123 226.124C513.287 226.647 517.053 239.044 509.04 252.597C508.879 252.85 508.604 252.974 508.321 252.938Z" fill="white"/>
<path d="M298.865 260.911C298.492 259.794 294.391 257.373 289.357 255.698C289.543 251.229 289.17 246.575 288.238 242.293C292.526 240.431 296.628 237.825 297.001 235.59C297.747 230.936 290.662 220.51 288.984 219.579C287.865 219.02 283.204 220.324 278.17 222.744C275.373 219.393 271.831 216.414 268.102 213.994C269.78 209.712 270.899 204.871 269.594 203.009C266.797 199.286 254.492 196.865 252.627 197.424C251.509 197.796 249.085 201.892 247.407 206.919C242.746 206.547 238.271 206.733 233.797 207.664C231.932 203.568 229.508 199.658 227.271 199.286C222.61 198.541 212.169 205.616 211.237 207.291C210.678 208.408 211.796 212.504 213.847 216.973C210.118 219.951 206.949 223.489 204.339 227.585C200.423 226.281 196.322 225.351 194.644 226.468C190.915 229.26 188.491 241.548 189.05 243.41C189.423 244.527 192.779 246.575 197.067 248.064C196.508 253.091 196.881 258.118 198 262.772C194.457 264.448 191.288 266.682 190.915 268.544C190.169 273.198 197.254 283.625 198.932 284.555C199.864 285.114 203.593 284.183 207.695 282.321C210.864 286.045 214.779 289.396 219.068 292.003C217.762 295.726 217.017 299.45 218.135 300.939C220.932 304.663 233.237 307.083 235.102 306.525C236.22 306.152 238.271 302.801 239.949 298.519C244.983 298.891 249.831 298.333 254.492 297.216C256.356 300.939 258.594 304.29 260.458 304.663C265.119 305.407 275.56 298.333 276.492 296.657C277.051 295.54 275.933 291.444 273.882 286.976C277.238 283.811 280.407 280.273 282.831 276.177C286.933 277.667 291.408 278.784 293.272 277.481C297.001 275.06 299.611 262.772 298.865 260.911ZM236.78 272.64C225.966 269.103 220 257.373 223.542 246.575C227.085 235.777 238.831 229.819 249.644 233.356C260.458 236.894 266.424 248.623 262.882 259.421C259.339 270.22 247.593 276.177 236.78 272.64Z" fill="#118B8C"/>
<path d="M234.356 280.459C218.881 275.432 210.491 258.676 215.525 243.409C220.559 227.956 237.339 219.578 252.627 224.605C268.102 229.632 276.492 246.388 271.458 261.655C266.424 277.107 249.831 285.486 234.356 280.459ZM252.627 224.977C237.339 219.951 220.932 228.329 216.084 243.409C211.05 258.676 219.44 275.059 234.542 279.9C249.831 284.927 266.238 276.549 271.085 261.468C276.119 246.388 267.729 230.004 252.627 224.977Z" fill="white"/>
<path d="M285.814 257.561C285.628 257.561 285.441 257.375 285.255 257.375C284.882 260.354 284.323 263.333 283.39 266.312C276.119 288.467 252.254 300.382 230.068 293.121C215.525 288.281 205.457 276.551 202.101 262.588C201.915 262.588 201.728 262.588 201.542 262.588C204.712 276.738 215.152 288.839 229.881 293.68C252.254 300.941 276.492 288.839 283.763 266.498C284.882 263.519 285.628 260.54 285.814 257.561Z" fill="white"/>
<path d="M229.322 213.436C237.899 210.457 247.407 210.085 256.543 213.064C256.729 213.064 256.916 213.25 257.102 213.25C257.102 213.064 257.102 212.878 257.102 212.691C256.916 212.691 256.916 212.691 256.729 212.505C247.407 209.527 237.712 209.713 229.136 212.878C229.136 213.064 229.322 213.25 229.322 213.436Z" fill="white"/>
<path d="M356.716 198.547C356.52 197.96 354.366 196.689 351.721 195.809C351.819 193.462 351.623 191.017 351.134 188.768C353.386 187.79 355.541 186.421 355.737 185.247C356.128 182.803 352.407 177.326 351.526 176.837C350.938 176.544 348.49 177.229 345.846 178.5C344.377 176.74 342.516 175.175 340.557 173.904C341.439 171.654 342.026 169.112 341.341 168.134C339.872 166.178 333.409 164.907 332.429 165.2C331.842 165.396 330.569 167.547 329.687 170.188C327.239 169.992 324.889 170.09 322.538 170.579C321.559 168.427 320.286 166.374 319.111 166.178C316.663 165.787 311.179 169.503 310.689 170.383C310.395 170.97 310.983 173.121 312.06 175.468C310.101 177.033 308.436 178.891 307.065 181.042C305.009 180.358 302.854 179.869 301.973 180.456C300.015 181.922 298.741 188.377 299.035 189.355C299.231 189.941 300.994 191.017 303.246 191.799C302.952 194.44 303.148 197.08 303.736 199.525C301.875 200.405 300.21 201.578 300.015 202.556C299.623 205.001 303.344 210.477 304.225 210.966C304.715 211.26 306.674 210.771 308.828 209.793C310.493 211.749 312.55 213.509 314.802 214.878C314.116 216.834 313.725 218.79 314.312 219.572C315.781 221.528 322.245 222.799 323.224 222.506C323.811 222.31 324.889 220.55 325.77 218.301C328.414 218.496 330.96 218.203 333.409 217.616C334.388 219.572 335.563 221.332 336.542 221.528C338.991 221.919 344.475 218.203 344.964 217.323C345.258 216.736 344.67 214.585 343.593 212.238C345.356 210.575 347.021 208.717 348.294 206.566C350.448 207.348 352.799 207.935 353.778 207.25C355.737 205.979 357.108 199.525 356.716 198.547ZM324.105 204.708C318.425 202.85 315.292 196.689 317.152 191.017C319.013 185.345 325.182 182.216 330.862 184.074C336.542 185.932 339.676 192.093 337.815 197.765C335.955 203.436 329.785 206.566 324.105 204.708Z" fill="#222222"/>
<path d="M322.832 208.814C314.704 206.174 310.297 197.373 312.941 189.354C315.585 181.237 324.399 176.837 332.429 179.477C340.557 182.117 344.964 190.919 342.32 198.937C339.676 207.054 330.96 211.455 322.832 208.814ZM332.429 179.673C324.399 177.032 315.781 181.433 313.235 189.354C310.591 197.373 314.998 205.978 322.93 208.521C330.96 211.161 339.578 206.761 342.124 198.84C344.768 190.919 340.361 182.313 332.429 179.673Z" fill="white"/>
<path d="M349.861 196.785C349.763 196.785 349.665 196.688 349.567 196.688C349.371 198.252 349.077 199.817 348.588 201.381C344.769 213.019 332.234 219.277 320.58 215.463C312.941 212.921 307.653 206.76 305.89 199.426C305.793 199.426 305.695 199.426 305.597 199.426C307.261 206.858 312.746 213.214 320.482 215.757C332.234 219.571 344.964 213.214 348.784 201.479C349.371 199.915 349.763 198.35 349.861 196.785Z" fill="white"/>
<path d="M320.188 173.61C324.693 172.045 329.687 171.849 334.486 173.414C334.584 173.414 334.682 173.512 334.78 173.512C334.78 173.414 334.78 173.316 334.78 173.218C334.682 173.218 334.682 173.218 334.584 173.121C329.687 171.556 324.595 171.654 320.09 173.316C320.09 173.414 320.188 173.512 320.188 173.61Z" fill="white"/>
<path d="M188.924 281L193.258 289.8L202.978 291.245L196.017 298.074L197.593 307.662L188.924 303.197L180.255 307.662L181.962 298.074L175 291.245L184.589 289.8L188.924 281Z" fill="#FFD052"/>
<path d="M203.241 321.322L202.059 326.575L205.737 330.384L200.483 330.91L197.987 335.638L195.754 330.778L190.5 329.859L194.441 326.181L193.784 320.928L198.381 323.555L203.241 321.322Z" fill="#FFD052"/>
<defs>
<linearGradient id="paint0_linear" x1="305.009" y1="666.273" x2="461.563" y2="82.0035" gradientUnits="userSpaceOnUse">
<stop stop-color="#FFFAEE"/>
<stop offset="1" stop-color="#FFF2D6" stop-opacity="0.06"/>
</linearGradient>
<linearGradient id="paint1_linear" x1="519.532" y1="457.702" x2="659.083" y2="457.702" gradientUnits="userSpaceOnUse">
<stop stop-color="#DAE3FE"/>
<stop offset="1" stop-color="#E9EFFD"/>
</linearGradient>
<linearGradient id="paint2_linear" x1="525.774" y1="403.986" x2="600.457" y2="420.879" gradientUnits="userSpaceOnUse">
<stop stop-color="#DAE3FE"/>
<stop offset="1" stop-color="#E9EFFD"/>
</linearGradient>
<linearGradient id="paint3_linear" x1="164.337" y1="412.447" x2="275.115" y2="412.447" gradientUnits="userSpaceOnUse">
<stop stop-color="#DAE3FE"/>
<stop offset="1" stop-color="#E9EFFD"/>
</linearGradient>
<linearGradient id="paint4_linear" x1="136.087" y1="487.012" x2="273.524" y2="487.012" gradientUnits="userSpaceOnUse">
<stop stop-color="#DAE3FE"/>
<stop offset="1" stop-color="#E9EFFD"/>
</linearGradient>
<linearGradient id="paint5_linear" x1="162.89" y1="478.834" x2="183.23" y2="478.834" gradientUnits="userSpaceOnUse">
<stop stop-color="#DAE3FE"/>
<stop offset="1" stop-color="#E9EFFD"/>
</linearGradient>
<linearGradient id="paint6_linear" x1="347.098" y1="389.875" x2="330.488" y2="437.422" gradientUnits="userSpaceOnUse">
<stop stop-color="#A22B25"/>
<stop offset="1" stop-color="#C0423C"/>
</linearGradient>
<linearGradient id="paint7_linear" x1="334.294" y1="420.24" x2="346.81" y2="394.945" gradientUnits="userSpaceOnUse">
<stop stop-color="#A22B25"/>
<stop offset="1" stop-color="#C0423C"/>
</linearGradient>
<linearGradient id="paint8_linear" x1="332.853" y1="384.898" x2="316.243" y2="432.446" gradientUnits="userSpaceOnUse">
<stop stop-color="#A22B25"/>
<stop offset="1" stop-color="#C0423C"/>
</linearGradient>
<linearGradient id="paint9_linear" x1="250.324" y1="419.652" x2="239.567" y2="476.945" gradientUnits="userSpaceOnUse">
<stop stop-color="#A22B25"/>
<stop offset="1" stop-color="#C0423C"/>
</linearGradient>
<linearGradient id="paint10_linear" x1="185.029" y1="219.679" x2="196.671" y2="254.9" gradientUnits="userSpaceOnUse">
<stop stop-color="#A22B25"/>
<stop offset="1" stop-color="#C0423C"/>
</linearGradient>
<linearGradient id="paint11_linear" x1="175.87" y1="222.706" x2="187.513" y2="257.927" gradientUnits="userSpaceOnUse">
<stop stop-color="#A22B25"/>
<stop offset="1" stop-color="#C0423C"/>
</linearGradient>
<linearGradient id="paint12_linear" x1="213.11" y1="621.279" x2="193.553" y2="480.558" gradientUnits="userSpaceOnUse">
<stop stop-color="#A22B25"/>
<stop offset="1" stop-color="#C0423C"/>
</linearGradient>
<linearGradient id="paint13_linear" x1="210.773" y1="607.742" x2="195.166" y2="495.446" gradientUnits="userSpaceOnUse">
<stop stop-color="#A22B25"/>
<stop offset="1" stop-color="#C0423C"/>
</linearGradient>
<linearGradient id="paint14_linear" x1="567" y1="487.375" x2="586.102" y2="487.375" gradientUnits="userSpaceOnUse">
<stop stop-color="#DAE3FE"/>
<stop offset="1" stop-color="#E9EFFD"/>
</linearGradient>
<linearGradient id="paint15_linear" x1="483.434" y1="270.486" x2="463.517" y2="361.792" gradientUnits="userSpaceOnUse">
<stop stop-color="#53D8FF"/>
<stop offset="1" stop-color="#3840F7"/>
</linearGradient>
<linearGradient id="paint16_linear" x1="483.675" y1="270.544" x2="463.761" y2="361.842" gradientUnits="userSpaceOnUse">
<stop stop-color="#53D8FF"/>
<stop offset="1" stop-color="#3840F7"/>
</linearGradient>
<linearGradient id="paint17_linear" x1="483.216" y1="270.446" x2="463.302" y2="361.744" gradientUnits="userSpaceOnUse">
<stop stop-color="#53D8FF"/>
<stop offset="1" stop-color="#3840F7"/>
</linearGradient>
<linearGradient id="paint18_linear" x1="483.462" y1="270.503" x2="463.549" y2="361.8" gradientUnits="userSpaceOnUse">
<stop stop-color="#53D8FF"/>
<stop offset="1" stop-color="#3840F7"/>
</linearGradient>
</defs>
</svg>
